<svg xmlns="http://www.w3.org/2000/svg" width="30.5" height="26.53" viewBox="0 0 30.5 26.53"><defs><style>.a{fill:#63bf49;}.a,.b,.c,.d,.e,.f{stroke:#000;stroke-linecap:round;stroke-linejoin:round;stroke-width:0.5px;}.b{fill:#21a3ac;}.c{fill:#fadb34;}.d{fill:none;}.e{fill:#fff;}.f{fill:#b5aeae;}</style></defs><g transform="translate(0.25 0.25)"><g transform="translate(-59.912 -295.481)"><ellipse class="a" cx="2.599" cy="6.261" rx="2.599" ry="6.261" transform="translate(84.714 298.119)"/><rect class="b" width="16.502" height="15.161" rx="2" transform="translate(66.866 297.538)"/><g transform="translate(68.813 307.108)"><circle class="c" cx="1.543" cy="1.543" r="1.543" transform="translate(0 0)"/><circle class="c" cx="1.543" cy="1.543" r="1.543" transform="translate(9.522 0)"/></g><g transform="translate(73.526 306.706)"><line class="d" y2="3.667" transform="translate(0.635)"/><line class="d" y2="3.667" transform="translate(2.823)"/></g><rect class="e" width="11.985" height="4.114" transform="translate(69.125 300.266)"/><rect class="c" width="8.595" height="2.057" transform="translate(70.82 295.481)"/><g transform="translate(69.258 312.698)"><line class="d" y1="8.765" x2="1.878" transform="translate(0)"/><line class="d" x1="1.878" y1="8.765" transform="translate(9.841)"/></g><path class="f" d="M97.974,360.078h7.962l1.472,6.868H96.5Z" transform="translate(-26.838 -47.38)"/><line class="d" x1="9" transform="translate(70.412 316.161)"/><line class="d" y1="6.154" transform="translate(87.313 308.161)"/><line class="d" x2="5.198" transform="translate(84.714 314.315)"/><line class="d" x2="3.17" transform="translate(85.728 316.133)"/><ellipse class="a" cx="1.995" cy="4.806" rx="1.995" ry="4.806" transform="translate(60.516 302.454)"/><line class="d" y1="4.725" transform="translate(62.51 310.161)"/><line class="d" x2="5.198" transform="translate(59.912 314.886)"/><line class="d" x2="3.17" transform="translate(60.925 316.704)"/></g></g></svg>